<svg xmlns="http://www.w3.org/2000/svg" fill="none" viewBox="0 0 15 14">
  <path fill="#0D1A26" d="M14 4.28c-.2 0-.38-.16-.48-.45 0-.01-.65-1.87-1.84-1.87-1.2 0-1.84 1.86-1.84 1.87-.13.4-.46.56-.72.36-.27-.2-.38-.68-.25-1.08C8.91 3 9.82.35 11.68.35s2.77 2.65 2.8 2.76c.14.4.03.89-.24 1.08a.4.4 0 01-.24.09zM6.13 4.28c-.2 0-.39-.16-.48-.45 0-.01-.65-1.87-1.84-1.87-1.2 0-1.84 1.86-1.84 1.87-.14.4-.46.56-.73.37C.98 4 .87 3.5 1 3.1 1.04 3 1.95.35 3.8.35 5.68.35 6.59 3 6.62 3.11c.14.4.03.89-.24 1.09a.4.4 0 01-.24.08zM2.63 9.68a.58.58 0 01.56-.24h.03l.09.02a39.57 39.57 0 004.49.37 32.88 32.88 0 004.17-.33l.33-.05h.1l.02-.01a.58.58 0 01.6.85 6 6 0 01-5.21 2.97 5.72 5.72 0 01-5.22-2.97c-.1-.2-.1-.43.04-.61z"/>
</svg>
