<svg xmlns="http://www.w3.org/2000/svg" fill="none" viewBox="0 0 105 31">
  <path fill="#EDEDED" d="M7.68 24.32c-.37 0-.71-.07-1.03-.21-.3-.15-.5-.36-.6-.65L1.3 7.91a1.22 1.22 0 01-.03-.24c0-.29.17-.53.5-.72.36-.21.72-.31 1.09-.31.2 0 .39.04.55.14.16.08.27.2.33.38l3.92 13.68 2.18-8.59c.05-.25.2-.44.46-.55a1.8 1.8 0 011.6 0c.24.11.4.3.46.55l2.18 8.6 3.92-13.69c.04-.17.15-.3.3-.38.18-.1.38-.14.58-.14.37 0 .72.1 1.06.3.35.2.53.44.53.73 0 .08-.02.16-.05.24l-4.73 15.55c-.1.29-.3.5-.62.65a2.43 2.43 0 01-2.02 0c-.32-.15-.51-.36-.57-.65l-1.83-7.25-1.82 7.25a1 1 0 01-.6.65c-.32.14-.66.21-1.01.21zm16.27.05c-.88 0-1.64-.25-2.26-.77-.62-.5-.94-1.3-.94-2.4 0-.9.24-1.61.7-2.1.48-.5 1.14-.85 1.97-1.04.85-.2 1.83-.29 2.95-.29h1.06v-.43c0-.4-.08-.8-.24-1.2a2.15 2.15 0 00-2.14-1.4 4.04 4.04 0 00-2.16.56.94.94 0 01-.5.17.76.76 0 01-.7-.41 1.92 1.92 0 01-.22-.86c0-.3.19-.55.56-.77a6.63 6.63 0 013.07-.77c1.18 0 2.13.22 2.83.67.7.43 1.22 1.01 1.54 1.73.32.7.48 1.46.48 2.26v6c0 .24-.12.44-.36.62-.23.16-.52.24-.87.24a1.4 1.4 0 01-.84-.24.8.8 0 01-.3-.62v-.82c-.44.5-.95.94-1.55 1.32a3.8 3.8 0 01-2.08.55zm.9-1.92c.4 0 .8-.12 1.18-.36.4-.24.73-.54.99-.91.27-.37.4-.74.4-1.13v-.89h-.6c-.6 0-1.18.04-1.72.12-.55.07-.99.23-1.32.48-.32.24-.48.62-.48 1.13 0 .55.14.95.43 1.2.3.24.68.36 1.13.36zm11.8 1.73a4.8 4.8 0 01-3.13-.89c-.72-.6-1.08-1.57-1.08-2.88v-12c0-.24.13-.43.39-.57a1.68 1.68 0 011.72 0c.28.14.41.33.41.57v4.4h2.93c.2 0 .38.09.5.28.13.2.2.41.2.65 0 .24-.07.46-.2.65-.12.19-.3.29-.5.29h-2.93v5.73c0 .6.12 1.01.36 1.25.26.24.7.36 1.32.36h.82c.37 0 .64.11.81.34.2.2.3.45.3.74 0 .27-.1.52-.3.74-.17.23-.44.34-.81.34h-.82zm8.64.2c-1.09 0-2.06-.2-2.9-.6a4.89 4.89 0 01-1.97-1.66 4.55 4.55 0 01-.7-2.52v-2.28c0-.84.23-1.6.67-2.3a5.05 5.05 0 016.67-1.78c.74.36 1.33.88 1.78 1.56.45.67.67 1.44.67 2.3 0 .67-.1 1.15-.33 1.44-.2.29-.48.46-.82.53-.33.06-.69.1-1.05.1h-5.07v.55c0 .8.3 1.44.87 1.92.59.46 1.34.7 2.25.7.58 0 1.03-.08 1.37-.22.35-.16.64-.32.86-.48.24-.16.48-.24.7-.24.3 0 .54.14.72.43.18.27.26.51.26.72 0 .24-.16.5-.5.79-.32.29-.78.54-1.37.74-.59.2-1.3.3-2.1.3zm-3.05-6.78h3.99c.35 0 .58-.04.7-.14s.18-.29.18-.58c0-.64-.23-1.18-.7-1.63a2.39 2.39 0 00-1.72-.67c-.66 0-1.23.22-1.73.65-.48.41-.72.95-.72 1.6v.77zm10.53 6.58c-.35 0-.65-.09-.89-.26-.22-.18-.33-.38-.33-.6v-9.7c0-.24.1-.43.33-.58.24-.16.54-.24.89-.24.32 0 .6.08.82.24.22.15.33.34.33.58v1.06c.26-.52.65-.98 1.18-1.4a3 3 0 011.87-.62h.77c.25 0 .48.11.67.34.2.2.29.46.29.76s-.1.57-.3.8a.86.86 0 01-.66.33h-.77c-.5 0-.97.15-1.42.43-.43.3-.79.7-1.08 1.23-.27.53-.4 1.15-.4 1.87v4.9c0 .22-.13.42-.39.6-.25.17-.56.26-.91.26zm8.84 0a1.5 1.5 0 01-.91-.26c-.23-.18-.34-.38-.34-.6V6.85c0-.24.11-.43.34-.57.24-.16.54-.24.91-.24.35 0 .65.08.89.24.25.14.38.33.38.57v16.47c0 .22-.13.42-.38.6-.24.17-.54.26-.89.26zm4.16 5.4c-.32 0-.59-.06-.81-.2-.23-.12-.34-.42-.34-.88 0-.29.05-.54.14-.77.1-.2.28-.31.53-.31.4 0 .85-.14 1.35-.43.5-.27.94-.7 1.34-1.3.4-.57.66-1.31.77-2.2l-4.06-9.32a.67.67 0 01-.1-.33c0-.21.1-.4.27-.58a2.17 2.17 0 011.4-.62c.17 0 .32.04.45.12.14.06.25.17.31.33l3.02 7.8 2.62-7.8a.6.6 0 01.29-.33.88.88 0 01.43-.12c.2 0 .42.05.67.16.27.12.5.27.7.46.2.18.31.38.31.62 0 .13-.02.23-.07.3l-3.6 9.38c-.26.68-.52 1.38-.8 2.08-.27.72-.6 1.38-1 1.97-.39.6-.88 1.07-1.49 1.42-.6.37-1.38.55-2.33.55z"/>
  <path fill="#4D80B3" d="M82.56 7.12a2 2 0 011.97-2.3h17.7a2 2 0 011.98 2.3l-3.25 21.36a2 2 0 01-1.98 1.7H87.8a2 2 0 01-1.98-1.7L82.56 7.12z"/>
  <path fill="#0D1A26" d="M99.64 14.2c-.2 0-.39-.17-.48-.45 0-.02-.65-1.87-1.84-1.87-1.2 0-1.84 1.85-1.84 1.87-.14.4-.46.56-.73.36-.26-.2-.37-.68-.24-1.08.04-.12.95-2.76 2.8-2.76 1.87 0 2.78 2.64 2.81 2.76.14.4.03.88-.24 1.08a.4.4 0 01-.24.08zM91.77 14.2c-.2 0-.39-.17-.48-.45 0-.02-.65-1.87-1.84-1.87-1.2 0-1.84 1.85-1.84 1.87-.14.4-.46.56-.73.36-.26-.2-.37-.68-.24-1.08.04-.12.95-2.76 2.8-2.76 1.87 0 2.77 2.64 2.81 2.76.14.4.03.88-.24 1.08a.4.4 0 01-.24.08zM88.26 19.6a.58.58 0 01.57-.25h.03l.09.02a36.7 36.7 0 001.48.18c.93.1 2.08.2 3 .2a32.9 32.9 0 004.18-.34l.33-.04.1-.01h.02a.58.58 0 01.6.84 6 6 0 01-5.21 2.98 5.72 5.72 0 01-5.22-2.98c-.1-.19-.1-.43.03-.6z"/>
</svg>
