<svg xmlns="http://www.w3.org/2000/svg" width="102" height="29" fill="none" viewBox="0 0 102 29">
  <path fill="#EDEDED" d="M6.9 21.9c-.4 0-.7 0-1-.2a1 1 0 01-.6-.7L.5 5.5v-.3c0-.3.2-.5.5-.7.3-.2.7-.3 1-.3l.6.1.4.4 3.9 13.7L9 9.8c0-.3.2-.4.4-.5a1.8 1.8 0 011.6 0c.3 0 .4.2.5.5l2.2 8.6 3.9-13.7c0-.2.1-.3.3-.4l.6-.1c.3 0 .7 0 1 .3.4.2.5.4.5.7v.3L15.4 21a1 1 0 01-.7.7l-1 .2c-.3 0-.7 0-1-.2-.3-.2-.5-.4-.6-.7l-1.8-7.2L8.5 21c0 .3-.3.5-.6.7l-1 .2zm16.3 0c-1 0-1.7-.2-2.3-.7-.6-.6-1-1.4-1-2.4s.3-1.7.8-2.2c.4-.5 1.1-.8 2-1 .8-.2 1.8-.3 2.9-.3h1V15c0-.4 0-.8-.2-1.2a2.2 2.2 0 00-2.1-1.4 4 4 0 00-2.2.6 1 1 0 01-.5.1.8.8 0 01-.7-.4 2 2 0 01-.2-.9c0-.2.2-.5.5-.7.4-.3.9-.4 1.5-.6l1.6-.2c1.2 0 2.1.2 2.8.7.7.4 1.3 1 1.6 1.7.3.7.5 1.5.5 2.3v6c0 .2-.2.4-.4.6-.2.2-.5.2-.9.2-.3 0-.6 0-.8-.2a.8.8 0 01-.3-.6V20l-1.6 1.3c-.5.3-1.2.5-2 .5zM24 20c.4 0 .8-.1 1.1-.4.4-.2.8-.5 1-.9.3-.3.4-.7.4-1v-1H26l-1.7.1-1.3.5c-.3.3-.5.6-.5 1.1 0 .6.2 1 .4 1.2.3.3.7.4 1.2.4zm11.8 1.7c-1.4 0-2.4-.3-3.2-.9-.7-.6-1-1.5-1-2.8V6c0-.3 0-.5.3-.6a1.7 1.7 0 011.8 0c.2.1.4.3.4.6v4.4H37c.2 0 .4 0 .5.2l.2.7c0 .2 0 .4-.2.6-.1.2-.3.3-.5.3h-3V18c0 .6.2 1 .4 1.2.3.3.7.4 1.4.4h.8c.3 0 .6 0 .8.3.2.2.3.5.3.8 0 .2-.1.5-.3.7-.2.2-.5.3-.8.3h-.8zm8.6.2c-1 0-2-.2-2.9-.6-.8-.4-1.5-1-2-1.6-.4-.8-.7-1.6-.7-2.6V15a4.8 4.8 0 012.5-4 5 5 0 014.9-.1c.7.4 1.3.9 1.8 1.5.4.7.6 1.5.6 2.4 0 .6 0 1.1-.3 1.4-.2.3-.5.5-.8.5l-1 .1h-5.1v.6c0 .8.2 1.4.8 1.9.6.5 1.4.7 2.3.7.5 0 1 0 1.3-.2l1-.5c.1-.2.4-.3.6-.3.3 0 .5.2.7.5l.3.7c0 .2-.2.5-.5.8a4 4 0 01-1.4.7c-.6.2-1.3.3-2.1.3zm-3-6.7h4c.3 0 .5 0 .6-.2.2 0 .2-.3.2-.6 0-.6-.2-1.1-.7-1.6-.4-.4-1-.7-1.7-.7s-1.2.2-1.7.7a2 2 0 00-.7 1.6v.8zM52 21.7c-.4 0-.7 0-1-.2l-.2-.6v-9.7c0-.3 0-.5.3-.6.2-.2.5-.2.9-.2.3 0 .6 0 .8.2.2.1.3.3.3.6v1c.3-.5.7-1 1.2-1.4a3 3 0 011.9-.6h.7c.3 0 .5.1.7.3.2.3.3.5.3.8 0 .3 0 .6-.3.8-.2.2-.4.3-.7.3h-.7c-.5 0-1 .2-1.4.5-.5.3-.8.7-1.1 1.2a4 4 0 00-.4 1.9v4.9c0 .2-.2.4-.4.6l-1 .2zm8.8 0c-.3 0-.7 0-.9-.2l-.3-.6V4.4c0-.2 0-.4.3-.6l1-.2c.3 0 .6 0 .8.2.3.2.4.4.4.6V21c0 .2-.1.4-.4.6l-.9.2zm4.2 5.4c-.3 0-.6 0-.8-.2-.3 0-.4-.4-.4-.8 0-.3 0-.6.2-.8 0-.2.2-.3.5-.3.4 0 .9-.2 1.3-.5a4 4 0 001.4-1.3c.4-.5.6-1.3.8-2.2l-4.1-9.3v-.3c0-.2 0-.4.2-.6a2.2 2.2 0 011.4-.6l.4.1c.2 0 .3.2.3.3l3 7.8 2.7-7.8.3-.3.4-.1c.2 0 .4 0 .7.2l.7.4.3.6-.1.3-3.6 9.4a179 179 0 01-1.8 4c-.4.7-.9 1.1-1.5 1.5-.6.3-1.4.5-2.3.5z"/>
  <path fill="#4D80B3" d="M79.1 5a2 2 0 012-2.3h17.7a2 2 0 012 2.3l-3.4 22c0 .6-.6 1-1.2 1H83.7c-.6 0-1.2-.4-1.2-1L79 5z"/>
  <path fill="#0D1A26" fill-rule="evenodd" d="M85.5 17c0-.2.2-.3.4-.3H94a.5.5 0 01.4.8 5 5 0 01-4.2 2.5c-2 .1-3.8-.9-4.7-2.5V17zM86 11.7c-.7 0-1.5.5-1.9 1.5a.5.5 0 11-.9-.3c.5-1.3 1.6-2.3 3-2.2 1.1 0 2 1 2.6 2.2a.5.5 0 11-1 .3c-.3-1-1-1.4-1.7-1.5zM94 11.7c-.7 0-1.5.5-2 1.5a.5.5 0 01-.9-.3c.6-1.3 1.7-2.3 3-2.2 1.2 0 2.1 1 2.6 2.2a.5.5 0 01-1 .3c-.3-1-1-1.4-1.7-1.5z" clip-rule="evenodd"/>
</svg>
